<?xml version="1.0" encoding="UTF-8" standalone="no"?>
<!-- Created with Inkscape (http://www.inkscape.org/) -->

<svg
   xmlns:dc="http://purl.org/dc/elements/1.1/"
   xmlns:cc="http://creativecommons.org/ns#"
   xmlns:rdf="http://www.w3.org/1999/02/22-rdf-syntax-ns#"
   xmlns:svg="http://www.w3.org/2000/svg"
   xmlns="http://www.w3.org/2000/svg"
   xmlns:sodipodi="http://sodipodi.sourceforge.net/DTD/sodipodi-0.dtd"
   xmlns:inkscape="http://www.inkscape.org/namespaces/inkscape"
   width="512"
   height="512"
   id="svg2"
   version="1.1"
   inkscape:version="0.48.2 r9819"
   sodipodi:docname="logo.svg">
  <defs
     id="defs4" />
  <sodipodi:namedview
     id="base"
     pagecolor="#ffffff"
     bordercolor="#666666"
     borderopacity="1.0"
     inkscape:pageopacity="0.0"
     inkscape:pageshadow="2"
     inkscape:zoom="0.44423995"
     inkscape:cx="-18.029001"
     inkscape:cy="348.19867"
     inkscape:document-units="px"
     inkscape:current-layer="layer1"
     showgrid="false"
     inkscape:window-width="1366"
     inkscape:window-height="720"
     inkscape:window-x="0"
     inkscape:window-y="0"
     inkscape:window-maximized="1" />
  <metadata
     id="metadata7">
    <rdf:RDF>
      <cc:Work
         rdf:about="">
        <dc:format>image/svg+xml</dc:format>
        <dc:type
           rdf:resource="http://purl.org/dc/dcmitype/StillImage" />
        <dc:title></dc:title>
      </cc:Work>
    </rdf:RDF>
  </metadata>
  <g
     inkscape:label="Ebene 1"
     inkscape:groupmode="layer"
     id="layer1"
     transform="translate(0,-540.36218)">
    <path
       style="fill:#d45500;fill-opacity:1;stroke:#000080;stroke-width:0.0818386;stroke-miterlimit:4;stroke-opacity:1"
       d="m 256.71926,542.64247 c -140.11111,0 -253.6996641,113.58856 -253.6996641,253.69967 0,140.1111 113.5885541,253.67416 253.6996641,253.67416 140.1111,0 253.6741,-113.56306 253.6741,-253.67416 0,-140.11111 -113.563,-253.69967 -253.6741,-253.69967 z m 0,26.87888 c 125.26361,0 226.79522,101.55717 226.79522,226.82079 0,125.26361 -101.53161,226.79516 -226.79522,226.79516 -125.26361,0 -226.820799,-101.53155 -226.820799,-226.79516 0,-125.26362 101.557189,-226.82079 226.820799,-226.82079 z"
       id="path2985"
       inkscape:connector-curvature="0" />
    <path
       style="fill:#d45500;fill-opacity:1;stroke:#000080;stroke-width:0.11455283;stroke-miterlimit:4;stroke-opacity:1;stroke-dasharray:none"
       d="M 318.82453,704.98608 C 268.37867,670.6789 199.67987,683.76054 165.37269,734.2064 c -34.30717,50.44586 -21.23991,119.16581 29.20595,153.47299 50.44586,34.30717 119.15904,21.20438 153.46622,-29.24148 34.30717,-50.44586 21.22553,-119.14466 -29.22033,-153.45183 z m -51.55938,75.81381 c 8.58082,5.83563 10.82268,17.5122 4.98705,26.09302 -5.83565,8.58082 -17.53336,10.8083 -26.11418,4.97266 -8.58082,-5.83563 -10.8083,-17.53335 -4.97266,-26.11417 5.83563,-8.58081 17.51897,-10.78715 26.09979,-4.95151 z"
       id="path2997"
       inkscape:connector-curvature="0" />
  </g>
</svg>
